<svg xmlns="http://www.w3.org/2000/svg" xmlns:xlink="http://www.w3.org/1999/xlink" width="362" zoomAndPan="magnify" viewBox="0 0 271.5 159.000002" height="212" preserveAspectRatio="xMidYMid meet" version="1.0"><defs><clipPath id="d80ab193ed"><path d="M 0.601562 39 L 18 39 L 18 122 L 0.601562 122 Z M 0.601562 39 " clip-rule="nonzero"/></clipPath><clipPath id="f5efc57ab9"><path d="M 111 39 L 174.257812 39 L 174.257812 122 L 111 122 Z M 111 39 " clip-rule="nonzero"/></clipPath><clipPath id="4acd33f470"><path d="M 222 76 L 270.261719 76 L 270.261719 119 L 222 119 Z M 222 76 " clip-rule="nonzero"/></clipPath><clipPath id="97ca2fac72"><path d="M 174.113281 75 L 207 75 L 207 102 L 174.113281 102 Z M 174.113281 75 " clip-rule="nonzero"/></clipPath><clipPath id="0e71f0302e"><path d="M 238 75 L 270.261719 75 L 270.261719 102 L 238 102 Z M 238 75 " clip-rule="nonzero"/></clipPath><clipPath id="dea78d22ab"><path d="M 174.113281 76 L 223 76 L 223 119 L 174.113281 119 Z M 174.113281 76 " clip-rule="nonzero"/></clipPath></defs><path fill="#434a54" d="M 49.777344 15.023438 C 49.265625 15.027344 48.828125 14.847656 48.464844 14.488281 C 48.292969 14.3125 48.15625 14.113281 48.0625 13.886719 C 47.96875 13.660156 47.921875 13.421875 47.921875 13.175781 C 47.921875 12.929688 47.96875 12.691406 48.0625 12.464844 C 48.15625 12.234375 48.292969 12.035156 48.464844 11.863281 C 49.171875 11.15625 49.910156 10.488281 50.679688 9.859375 C 51.449219 9.226562 52.25 8.632812 53.078125 8.082031 C 53.90625 7.527344 54.757812 7.015625 55.636719 6.546875 C 56.515625 6.078125 57.414062 5.652344 58.335938 5.273438 C 59.253906 4.890625 60.191406 4.554688 61.144531 4.265625 C 62.097656 3.976562 63.0625 3.734375 64.039062 3.542969 C 65.015625 3.347656 66 3.203125 66.992188 3.105469 C 67.980469 3.007812 68.976562 2.957031 69.972656 2.957031 C 70.964844 2.957031 71.960938 3.007812 72.949219 3.105469 C 73.941406 3.203125 74.925781 3.347656 75.902344 3.542969 C 76.878906 3.734375 77.84375 3.976562 78.796875 4.265625 C 79.75 4.554688 80.6875 4.890625 81.605469 5.273438 C 82.527344 5.652344 83.425781 6.078125 84.304688 6.546875 C 85.183594 7.015625 86.035156 7.527344 86.863281 8.082031 C 87.691406 8.632812 88.492188 9.226562 89.261719 9.859375 C 90.03125 10.488281 90.769531 11.15625 91.476562 11.863281 C 91.648438 12.035156 91.785156 12.234375 91.878906 12.464844 C 91.972656 12.691406 92.019531 12.929688 92.019531 13.175781 C 92.019531 13.421875 91.972656 13.660156 91.878906 13.886719 C 91.785156 14.113281 91.648438 14.3125 91.476562 14.488281 C 91.300781 14.660156 91.101562 14.792969 90.875 14.886719 C 90.652344 14.980469 90.417969 15.027344 90.171875 15.027344 C 89.929688 15.027344 89.695312 14.980469 89.46875 14.886719 C 89.242188 14.792969 89.042969 14.660156 88.871094 14.488281 C 88.25 13.871094 87.601562 13.28125 86.925781 12.726562 C 86.25 12.171875 85.546875 11.652344 84.820312 11.164062 C 84.09375 10.679688 83.34375 10.230469 82.570312 9.816406 C 81.800781 9.402344 81.011719 9.03125 80.203125 8.695312 C 79.394531 8.359375 78.570312 8.066406 77.734375 7.8125 C 76.894531 7.558594 76.046875 7.347656 75.191406 7.175781 C 74.332031 7.003906 73.46875 6.875 72.597656 6.789062 C 71.726562 6.703125 70.855469 6.660156 69.980469 6.660156 C 69.105469 6.660156 68.234375 6.703125 67.363281 6.789062 C 66.492188 6.875 65.628906 7.003906 64.769531 7.175781 C 63.910156 7.347656 63.0625 7.558594 62.226562 7.8125 C 61.390625 8.066406 60.566406 8.359375 59.757812 8.695312 C 58.949219 9.03125 58.160156 9.402344 57.386719 9.816406 C 56.617188 10.230469 55.867188 10.679688 55.140625 11.164062 C 54.410156 11.652344 53.710938 12.171875 53.035156 12.726562 C 52.355469 13.28125 51.710938 13.871094 51.089844 14.488281 C 50.726562 14.847656 50.289062 15.027344 49.777344 15.023438 Z M 49.777344 15.023438 " fill-opacity="1" fill-rule="nonzero"/><path fill="#434a54" d="M 83.199219 22.015625 C 82.683594 22.015625 82.246094 21.828125 81.886719 21.460938 C 81.496094 21.070312 81.085938 20.703125 80.660156 20.351562 C 80.234375 20.003906 79.792969 19.675781 79.332031 19.371094 C 78.875 19.0625 78.402344 18.78125 77.914062 18.519531 C 77.429688 18.261719 76.929688 18.027344 76.421875 17.816406 C 75.914062 17.605469 75.394531 17.417969 74.867188 17.257812 C 74.339844 17.097656 73.804688 16.964844 73.261719 16.859375 C 72.722656 16.75 72.179688 16.671875 71.628906 16.617188 C 71.082031 16.5625 70.53125 16.535156 69.980469 16.535156 C 69.429688 16.535156 68.878906 16.5625 68.332031 16.617188 C 67.78125 16.671875 67.238281 16.75 66.695312 16.859375 C 66.15625 16.964844 65.621094 17.097656 65.09375 17.257812 C 64.566406 17.417969 64.046875 17.605469 63.539062 17.816406 C 63.027344 18.027344 62.53125 18.261719 62.042969 18.519531 C 61.558594 18.78125 61.085938 19.0625 60.625 19.371094 C 60.167969 19.675781 59.726562 20.003906 59.300781 20.351562 C 58.871094 20.703125 58.464844 21.070312 58.074219 21.460938 C 57.902344 21.636719 57.703125 21.769531 57.476562 21.863281 C 57.25 21.957031 57.011719 22.007812 56.769531 22.007812 C 56.523438 22.007812 56.289062 21.960938 56.0625 21.867188 C 55.835938 21.777344 55.632812 21.644531 55.460938 21.46875 C 55.285156 21.296875 55.152344 21.097656 55.058594 20.871094 C 54.960938 20.644531 54.914062 20.410156 54.914062 20.164062 C 54.914062 19.917969 54.957031 19.683594 55.050781 19.453125 C 55.144531 19.226562 55.277344 19.027344 55.449219 18.851562 C 55.925781 18.378906 56.421875 17.925781 56.945312 17.5 C 57.464844 17.070312 58.003906 16.671875 58.5625 16.296875 C 59.121094 15.921875 59.699219 15.578125 60.292969 15.261719 C 60.882812 14.945312 61.492188 14.65625 62.113281 14.398438 C 62.734375 14.140625 63.367188 13.914062 64.011719 13.71875 C 64.652344 13.523438 65.304688 13.359375 65.964844 13.230469 C 66.625 13.097656 67.289062 13 67.957031 12.933594 C 68.628906 12.867188 69.296875 12.835938 69.972656 12.835938 C 70.644531 12.835938 71.3125 12.867188 71.984375 12.933594 C 72.652344 13 73.316406 13.097656 73.976562 13.230469 C 74.636719 13.359375 75.289062 13.523438 75.929688 13.71875 C 76.574219 13.914062 77.207031 14.140625 77.828125 14.398438 C 78.449219 14.65625 79.058594 14.945312 79.652344 15.261719 C 80.242188 15.578125 80.820312 15.921875 81.378906 16.296875 C 81.9375 16.671875 82.476562 17.070312 82.996094 17.5 C 83.519531 17.925781 84.015625 18.378906 84.492188 18.851562 C 84.757812 19.117188 84.925781 19.429688 85 19.796875 C 85.074219 20.164062 85.042969 20.519531 84.898438 20.867188 C 84.757812 21.214844 84.53125 21.492188 84.222656 21.699219 C 83.914062 21.910156 83.570312 22.015625 83.199219 22.015625 Z M 83.199219 22.015625 " fill-opacity="1" fill-rule="nonzero"/><path fill="#434a54" d="M 76.214844 29.007812 C 75.699219 29.003906 75.261719 28.820312 74.902344 28.453125 C 74.574219 28.140625 74.21875 27.859375 73.835938 27.613281 C 73.449219 27.371094 73.046875 27.164062 72.625 26.992188 C 72.203125 26.824219 71.769531 26.699219 71.324219 26.613281 C 70.875 26.527344 70.425781 26.484375 69.972656 26.484375 C 69.515625 26.484375 69.066406 26.527344 68.617188 26.613281 C 68.171875 26.699219 67.738281 26.824219 67.316406 26.992188 C 66.894531 27.164062 66.492188 27.371094 66.109375 27.613281 C 65.722656 27.859375 65.367188 28.140625 65.039062 28.453125 C 64.871094 28.648438 64.671875 28.800781 64.441406 28.914062 C 64.207031 29.027344 63.964844 29.089844 63.707031 29.097656 C 63.449219 29.109375 63.199219 29.066406 62.960938 28.972656 C 62.722656 28.878906 62.511719 28.738281 62.328125 28.558594 C 62.148438 28.375 62.007812 28.164062 61.914062 27.925781 C 61.820312 27.683594 61.777344 27.4375 61.789062 27.179688 C 61.796875 26.921875 61.859375 26.675781 61.972656 26.445312 C 62.085938 26.210938 62.238281 26.011719 62.433594 25.84375 C 62.929688 25.347656 63.46875 24.90625 64.050781 24.515625 C 64.632812 24.128906 65.25 23.796875 65.894531 23.53125 C 66.542969 23.261719 67.210938 23.058594 67.898438 22.921875 C 68.585938 22.785156 69.28125 22.71875 69.980469 22.71875 C 70.679688 22.71875 71.375 22.785156 72.0625 22.921875 C 72.75 23.058594 73.417969 23.261719 74.0625 23.53125 C 74.710938 23.796875 75.328125 24.128906 75.910156 24.515625 C 76.492188 24.90625 77.03125 25.347656 77.527344 25.84375 C 77.792969 26.109375 77.964844 26.425781 78.039062 26.792969 C 78.109375 27.164062 78.074219 27.519531 77.933594 27.867188 C 77.789062 28.214844 77.558594 28.492188 77.246094 28.699219 C 76.933594 28.90625 76.589844 29.011719 76.214844 29.007812 Z M 76.214844 29.007812 " fill-opacity="1" fill-rule="nonzero"/><path fill="#434a54" d="M 69.972656 158 C 67.972656 158.007812 65.996094 157.816406 64.035156 157.429688 C 62.074219 157.042969 60.171875 156.464844 58.328125 155.699219 C 56.480469 154.933594 54.726562 153.996094 53.070312 152.882812 C 51.410156 151.769531 49.875 150.503906 48.464844 149.085938 C 48.292969 148.910156 48.15625 148.710938 48.0625 148.484375 C 47.96875 148.253906 47.921875 148.019531 47.921875 147.773438 C 47.921875 147.523438 47.96875 147.289062 48.0625 147.058594 C 48.15625 146.832031 48.289062 146.632812 48.464844 146.457031 C 48.636719 146.28125 48.839844 146.148438 49.066406 146.054688 C 49.292969 145.960938 49.53125 145.914062 49.777344 145.914062 C 50.023438 145.914062 50.261719 145.960938 50.488281 146.054688 C 50.714844 146.148438 50.917969 146.285156 51.089844 146.460938 C 52.324219 147.707031 53.671875 148.820312 55.128906 149.800781 C 56.585938 150.78125 58.121094 151.605469 59.742188 152.28125 C 61.363281 152.953125 63.035156 153.460938 64.757812 153.800781 C 66.476562 154.140625 68.214844 154.308594 69.972656 154.300781 C 71.726562 154.308594 73.464844 154.140625 75.191406 153.800781 C 76.914062 153.460938 78.585938 152.957031 80.207031 152.28125 C 81.828125 151.609375 83.371094 150.78125 84.828125 149.800781 C 86.285156 148.820312 87.632812 147.707031 88.871094 146.460938 C 89.042969 146.285156 89.242188 146.152344 89.46875 146.0625 C 89.695312 145.96875 89.929688 145.921875 90.171875 145.921875 C 90.417969 145.921875 90.652344 145.96875 90.875 146.0625 C 91.101562 146.152344 91.300781 146.285156 91.476562 146.460938 C 91.648438 146.632812 91.785156 146.832031 91.878906 147.0625 C 91.972656 147.289062 92.019531 147.527344 92.019531 147.773438 C 92.019531 148.019531 91.972656 148.257812 91.878906 148.484375 C 91.785156 148.710938 91.648438 148.910156 91.476562 149.085938 C 90.066406 150.503906 88.53125 151.769531 86.871094 152.882812 C 85.214844 153.996094 83.460938 154.933594 81.613281 155.699219 C 79.769531 156.464844 77.867188 157.042969 75.90625 157.429688 C 73.945312 157.816406 71.96875 158.007812 69.972656 158 Z M 69.972656 158 " fill-opacity="1" fill-rule="nonzero"/><path fill="#434a54" d="M 69.972656 148.105469 C 68.621094 148.113281 67.285156 147.984375 65.960938 147.726562 C 64.636719 147.464844 63.351562 147.078125 62.105469 146.5625 C 60.859375 146.046875 59.675781 145.410156 58.554688 144.660156 C 57.4375 143.90625 56.398438 143.050781 55.449219 142.09375 C 55.277344 141.921875 55.144531 141.722656 55.050781 141.496094 C 54.960938 141.269531 54.914062 141.035156 54.914062 140.789062 C 54.914062 140.546875 54.960938 140.3125 55.050781 140.085938 C 55.144531 139.859375 55.277344 139.660156 55.449219 139.484375 C 55.625 139.3125 55.824219 139.175781 56.050781 139.082031 C 56.277344 138.984375 56.515625 138.9375 56.761719 138.9375 C 57.007812 138.9375 57.246094 138.984375 57.472656 139.082031 C 57.699219 139.175781 57.898438 139.3125 58.074219 139.484375 C 58.464844 139.875 58.871094 140.242188 59.300781 140.59375 C 59.726562 140.941406 60.167969 141.269531 60.628906 141.574219 C 61.085938 141.878906 61.558594 142.164062 62.046875 142.421875 C 62.53125 142.679688 63.03125 142.917969 63.539062 143.125 C 64.050781 143.335938 64.566406 143.523438 65.09375 143.679688 C 65.621094 143.839844 66.15625 143.976562 66.699219 144.082031 C 67.238281 144.1875 67.78125 144.269531 68.332031 144.324219 C 68.878906 144.378906 69.429688 144.40625 69.980469 144.40625 C 70.53125 144.40625 71.082031 144.378906 71.628906 144.324219 C 72.175781 144.269531 72.722656 144.1875 73.261719 144.082031 C 73.804688 143.976562 74.335938 143.839844 74.863281 143.679688 C 75.390625 143.523438 75.910156 143.335938 76.421875 143.125 C 76.929688 142.917969 77.425781 142.679688 77.914062 142.421875 C 78.398438 142.164062 78.871094 141.878906 79.332031 141.574219 C 79.789062 141.269531 80.234375 140.941406 80.660156 140.59375 C 81.085938 140.242188 81.496094 139.875 81.886719 139.484375 C 82.058594 139.3125 82.257812 139.179688 82.484375 139.089844 C 82.710938 138.996094 82.945312 138.949219 83.1875 138.949219 C 83.433594 138.949219 83.667969 138.996094 83.894531 139.089844 C 84.117188 139.179688 84.320312 139.3125 84.492188 139.484375 C 84.664062 139.660156 84.796875 139.859375 84.890625 140.085938 C 84.980469 140.3125 85.027344 140.546875 85.027344 140.789062 C 85.027344 141.035156 84.980469 141.269531 84.890625 141.496094 C 84.796875 141.722656 84.664062 141.921875 84.492188 142.09375 C 83.542969 143.050781 82.503906 143.90625 81.386719 144.660156 C 80.265625 145.410156 79.082031 146.046875 77.835938 146.5625 C 76.589844 147.078125 75.304688 147.464844 73.980469 147.726562 C 72.65625 147.984375 71.320312 148.113281 69.972656 148.105469 Z M 69.972656 148.105469 " fill-opacity="1" fill-rule="nonzero"/><path fill="#434a54" d="M 69.972656 138.226562 C 68.554688 138.234375 67.195312 137.964844 65.886719 137.421875 C 64.582031 136.882812 63.429688 136.109375 62.433594 135.101562 C 62.238281 134.933594 62.085938 134.734375 61.972656 134.503906 C 61.859375 134.269531 61.800781 134.027344 61.789062 133.769531 C 61.777344 133.511719 61.820312 133.261719 61.914062 133.023438 C 62.007812 132.78125 62.148438 132.570312 62.328125 132.390625 C 62.511719 132.207031 62.722656 132.070312 62.960938 131.976562 C 63.199219 131.882812 63.449219 131.839844 63.707031 131.847656 C 63.964844 131.859375 64.207031 131.921875 64.441406 132.03125 C 64.671875 132.144531 64.871094 132.296875 65.039062 132.496094 C 65.363281 132.816406 65.714844 133.105469 66.097656 133.363281 C 66.476562 133.617188 66.878906 133.832031 67.300781 134.007812 C 67.726562 134.179688 68.160156 134.3125 68.609375 134.402344 C 69.058594 134.492188 69.511719 134.535156 69.972656 134.535156 C 70.429688 134.535156 70.882812 134.492188 71.332031 134.402344 C 71.78125 134.3125 72.214844 134.179688 72.640625 134.007812 C 73.0625 133.832031 73.464844 133.617188 73.847656 133.363281 C 74.226562 133.105469 74.578125 132.816406 74.902344 132.496094 C 75.078125 132.320312 75.277344 132.183594 75.503906 132.089844 C 75.730469 131.996094 75.96875 131.949219 76.214844 131.949219 C 76.460938 131.949219 76.699219 131.996094 76.925781 132.089844 C 77.152344 132.183594 77.351562 132.320312 77.527344 132.496094 C 77.699219 132.667969 77.832031 132.867188 77.925781 133.09375 C 78.015625 133.320312 78.0625 133.554688 78.0625 133.796875 C 78.0625 134.042969 78.015625 134.277344 77.925781 134.503906 C 77.832031 134.730469 77.699219 134.929688 77.527344 135.101562 C 76.527344 136.105469 75.371094 136.878906 74.058594 137.421875 C 72.75 137.960938 71.386719 138.230469 69.972656 138.226562 Z M 69.972656 138.226562 " fill-opacity="1" fill-rule="nonzero"/><g clip-path="url(#d80ab193ed)"><path fill="#5e9cea" d="M 17.226562 119.140625 C 17.234375 119.574219 17.097656 119.957031 16.820312 120.285156 C 16.445312 120.691406 15.988281 120.964844 15.453125 121.101562 C 14.628906 121.363281 13.785156 121.535156 12.921875 121.617188 C 11.582031 121.757812 10.242188 121.820312 8.894531 121.804688 C 7.550781 121.820312 6.207031 121.757812 4.867188 121.617188 C 4.046875 121.550781 3.238281 121.402344 2.449219 121.175781 C 1.914062 121.039062 1.457031 120.765625 1.082031 120.359375 C 0.753906 120.019531 0.59375 119.613281 0.601562 119.140625 L 0.601562 41.808594 C 0.601562 41.378906 0.738281 40.996094 1.007812 40.660156 C 1.398438 40.226562 1.878906 39.933594 2.449219 39.789062 C 3.285156 39.535156 4.144531 39.363281 5.015625 39.273438 C 6.34375 39.132812 7.671875 39.070312 9.003906 39.089844 C 10.351562 39.070312 11.695312 39.132812 13.03125 39.273438 C 13.894531 39.355469 14.738281 39.527344 15.5625 39.789062 C 16.097656 39.929688 16.554688 40.199219 16.929688 40.605469 C 17.199219 40.941406 17.335938 41.320312 17.335938 41.75 Z M 17.226562 119.140625 " fill-opacity="1" fill-rule="nonzero"/></g><g clip-path="url(#f5efc57ab9)"><path fill="#eb5463" d="M 174.257812 46.355469 C 174.269531 47.410156 174.210938 48.457031 174.089844 49.5 C 174.023438 50.21875 173.871094 50.914062 173.628906 51.589844 C 173.457031 52.042969 173.195312 52.433594 172.835938 52.757812 C 172.527344 53.003906 172.175781 53.125 171.78125 53.125 L 151.3125 53.125 L 151.3125 119.140625 C 151.320312 119.574219 151.183594 119.957031 150.90625 120.285156 C 150.527344 120.6875 150.070312 120.957031 149.539062 121.101562 C 148.707031 121.363281 147.859375 121.535156 146.988281 121.617188 C 145.652344 121.757812 144.308594 121.820312 142.960938 121.804688 C 141.621094 121.820312 140.285156 121.757812 138.953125 121.617188 C 138.082031 121.558594 137.226562 121.410156 136.386719 121.175781 C 135.859375 121.03125 135.410156 120.761719 135.035156 120.359375 C 134.761719 120.027344 134.621094 119.644531 134.613281 119.214844 L 134.613281 53.125 L 114.144531 53.125 C 113.742188 53.136719 113.382812 53.011719 113.070312 52.757812 C 112.726562 52.425781 112.46875 52.039062 112.296875 51.589844 C 112.054688 50.914062 111.898438 50.21875 111.832031 49.5 C 111.71875 48.457031 111.671875 47.410156 111.6875 46.355469 C 111.671875 45.28125 111.71875 44.207031 111.832031 43.140625 C 111.894531 42.410156 112.046875 41.699219 112.296875 41.011719 C 112.460938 40.566406 112.71875 40.183594 113.070312 39.863281 C 113.390625 39.628906 113.746094 39.519531 114.144531 39.53125 L 171.78125 39.53125 C 172.167969 39.53125 172.519531 39.644531 172.835938 39.863281 C 173.199219 40.179688 173.464844 40.5625 173.628906 41.011719 C 173.875 41.699219 174.03125 42.410156 174.089844 43.140625 C 174.210938 44.207031 174.269531 45.28125 174.257812 46.355469 Z M 174.257812 46.355469 " fill-opacity="1" fill-rule="nonzero"/></g><path fill="#b4df80" d="M 108.691406 79.519531 C 108.785156 85.730469 107.949219 91.808594 106.179688 97.757812 C 104.636719 102.84375 102.125 107.394531 98.644531 111.410156 C 95.199219 115.230469 91.078125 118.074219 86.285156 119.933594 C 80.792969 122.007812 75.117188 122.988281 69.25 122.875 C 63.566406 122.984375 58.023438 122.152344 52.625 120.378906 C 48.039062 118.824219 44.085938 116.28125 40.761719 112.757812 C 37.402344 108.988281 35.039062 104.675781 33.667969 99.8125 C 31.949219 93.652344 31.148438 87.375 31.265625 80.980469 C 31.195312 74.890625 32.058594 68.933594 33.855469 63.113281 C 35.34375 58.074219 37.804688 53.566406 41.242188 49.59375 C 44.699219 45.78125 48.816406 42.933594 53.601562 41.046875 C 59.140625 38.9375 64.875 37.945312 70.800781 38.070312 C 76.410156 37.972656 81.878906 38.800781 87.207031 40.550781 C 91.8125 42.070312 95.777344 44.597656 99.105469 48.132812 C 102.488281 51.898438 104.882812 56.214844 106.292969 61.082031 C 108.019531 67.105469 108.820312 73.253906 108.691406 79.519531 Z M 91.253906 80.484375 C 91.277344 76.535156 90.941406 72.621094 90.238281 68.738281 C 89.679688 65.496094 88.527344 62.480469 86.78125 59.691406 C 85.164062 57.152344 83.011719 55.210938 80.316406 53.867188 C 77.105469 52.378906 73.730469 51.695312 70.191406 51.8125 C 66.578125 51.691406 63.167969 52.460938 59.957031 54.125 C 57.230469 55.632812 55.023438 57.691406 53.324219 60.304688 C 51.542969 63.070312 50.351562 66.074219 49.742188 69.3125 C 49.019531 72.894531 48.648438 76.511719 48.632812 80.167969 C 48.59375 84.210938 48.929688 88.226562 49.628906 92.210938 C 50.175781 95.515625 51.320312 98.597656 53.066406 101.457031 C 54.65625 104.011719 56.804688 105.941406 59.515625 107.246094 C 62.746094 108.703125 66.132812 109.367188 69.675781 109.246094 C 73.335938 109.367188 76.792969 108.578125 80.039062 106.878906 C 82.785156 105.375 85.003906 103.300781 86.691406 100.664062 C 88.4375 97.859375 89.609375 94.832031 90.199219 91.582031 C 90.917969 87.917969 91.269531 84.21875 91.253906 80.484375 Z M 91.253906 80.484375 " fill-opacity="1" fill-rule="nonzero"/><path fill="#fbb03b" d="M 177.378906 17.753906 C 177.007812 18.101562 176.714844 18.511719 176.507812 18.976562 C 176.296875 19.441406 176.183594 19.929688 176.167969 20.4375 C 176.152344 20.949219 176.234375 21.441406 176.414062 21.917969 C 176.59375 22.394531 176.855469 22.820312 177.207031 23.195312 L 177.226562 23.214844 C 177.574219 23.582031 177.980469 23.871094 178.445312 24.078125 C 178.910156 24.285156 179.394531 24.398438 179.902344 24.410156 C 180.414062 24.425781 180.902344 24.34375 181.378906 24.160156 C 181.855469 23.980469 182.277344 23.714844 182.644531 23.367188 C 185.285156 20.875 188.136719 18.652344 191.199219 16.703125 C 194.261719 14.75 197.484375 13.101562 200.859375 11.761719 C 204.238281 10.417969 207.710938 9.40625 211.28125 8.722656 C 214.851562 8.039062 218.457031 7.695312 222.089844 7.695312 L 222.089844 0.03125 C 217.972656 0.03125 213.890625 0.417969 209.84375 1.191406 C 205.796875 1.960938 201.859375 3.105469 198.03125 4.625 C 194.203125 6.140625 190.554688 8.003906 187.082031 10.210938 C 183.609375 12.417969 180.375 14.933594 177.378906 17.753906 Z M 177.378906 17.753906 " fill-opacity="1" fill-rule="nonzero"/><path fill="#bc842c" d="M 266.996094 17.753906 C 263.996094 14.925781 260.753906 12.410156 257.273438 10.199219 C 253.792969 7.988281 250.136719 6.125 246.296875 4.605469 C 242.460938 3.089844 238.515625 1.945312 234.460938 1.175781 C 230.40625 0.40625 226.316406 0.0234375 222.1875 0.0273438 C 222.15625 0.0273438 222.125 0.03125 222.089844 0.03125 L 222.089844 7.695312 C 222.125 7.695312 222.15625 7.691406 222.1875 7.691406 C 225.832031 7.6875 229.445312 8.023438 233.023438 8.707031 C 236.601562 9.386719 240.085938 10.398438 243.472656 11.738281 C 246.855469 13.082031 250.085938 14.730469 253.15625 16.6875 C 256.226562 18.640625 259.085938 20.867188 261.730469 23.367188 C 262.097656 23.714844 262.519531 23.980469 262.996094 24.160156 C 263.472656 24.34375 263.964844 24.425781 264.472656 24.410156 C 264.980469 24.398438 265.46875 24.285156 265.929688 24.078125 C 266.394531 23.871094 266.800781 23.582031 267.152344 23.214844 L 267.167969 23.195312 C 267.519531 22.824219 267.785156 22.398438 267.96875 21.921875 C 268.148438 21.441406 268.230469 20.949219 268.214844 20.4375 C 268.199219 19.929688 268.085938 19.441406 267.875 18.976562 C 267.664062 18.507812 267.371094 18.101562 266.996094 17.753906 Z M 266.996094 17.753906 " fill-opacity="1" fill-rule="nonzero"/><path fill="#bc842c" d="M 222.1875 26.855469 C 224.613281 26.851562 227.015625 27.074219 229.394531 27.523438 C 231.777344 27.976562 234.09375 28.648438 236.347656 29.539062 C 238.601562 30.429688 240.75 31.523438 242.792969 32.820312 C 244.839844 34.121094 246.742188 35.601562 248.503906 37.257812 C 248.6875 37.4375 248.886719 37.59375 249.101562 37.734375 C 249.316406 37.871094 249.542969 37.988281 249.777344 38.082031 C 250.015625 38.175781 250.261719 38.246094 250.511719 38.292969 C 250.765625 38.339844 251.015625 38.359375 251.273438 38.355469 C 251.527344 38.351562 251.78125 38.320312 252.03125 38.265625 C 252.28125 38.210938 252.523438 38.132812 252.757812 38.03125 C 252.992188 37.929688 253.214844 37.804688 253.421875 37.660156 C 253.632812 37.511719 253.824219 37.347656 254.003906 37.164062 C 254.351562 36.796875 254.621094 36.375 254.804688 35.902344 C 254.988281 35.429688 255.070312 34.941406 255.058594 34.433594 C 255.046875 33.925781 254.9375 33.441406 254.730469 32.980469 C 254.523438 32.515625 254.234375 32.109375 253.867188 31.761719 C 251.75 29.757812 249.457031 27.972656 247 26.40625 C 244.539062 24.839844 241.953125 23.515625 239.238281 22.441406 C 236.527344 21.363281 233.738281 20.550781 230.867188 20.003906 C 228 19.457031 225.109375 19.1875 222.1875 19.191406 C 222.15625 19.191406 222.125 19.191406 222.089844 19.191406 L 222.089844 26.859375 C 222.125 26.859375 222.15625 26.855469 222.1875 26.855469 Z M 222.1875 26.855469 " fill-opacity="1" fill-rule="nonzero"/><path fill="#fbb03b" d="M 189.316406 34.519531 C 189.324219 35.539062 189.675781 36.417969 190.375 37.164062 C 190.550781 37.347656 190.742188 37.511719 190.953125 37.660156 C 191.164062 37.804688 191.382812 37.929688 191.617188 38.03125 C 191.851562 38.132812 192.09375 38.210938 192.34375 38.265625 C 192.59375 38.320312 192.847656 38.351562 193.101562 38.355469 C 193.359375 38.359375 193.613281 38.339844 193.863281 38.292969 C 194.113281 38.246094 194.359375 38.175781 194.597656 38.082031 C 194.835938 37.988281 195.0625 37.871094 195.273438 37.734375 C 195.488281 37.59375 195.6875 37.4375 195.871094 37.257812 C 197.628906 35.605469 199.523438 34.132812 201.5625 32.835938 C 203.597656 31.539062 205.738281 30.449219 207.984375 29.558594 C 210.226562 28.667969 212.535156 27.996094 214.910156 27.542969 C 217.28125 27.085938 219.675781 26.859375 222.089844 26.859375 L 222.089844 19.191406 C 219.179688 19.195312 216.296875 19.472656 213.4375 20.023438 C 210.578125 20.574219 207.796875 21.386719 205.09375 22.460938 C 202.386719 23.539062 199.808594 24.855469 197.359375 26.421875 C 194.90625 27.984375 192.621094 29.765625 190.507812 31.761719 C 189.710938 32.507812 189.316406 33.429688 189.316406 34.519531 Z M 189.316406 34.519531 " fill-opacity="1" fill-rule="nonzero"/><path fill="#bc842c" d="M 222.1875 46.015625 C 224.644531 46.011719 227.015625 46.464844 229.300781 47.371094 C 231.582031 48.28125 233.613281 49.578125 235.394531 51.265625 C 235.574219 51.441406 235.773438 51.597656 235.984375 51.738281 C 236.199219 51.875 236.421875 51.988281 236.660156 52.082031 C 236.894531 52.171875 237.136719 52.242188 237.386719 52.285156 C 237.636719 52.328125 237.890625 52.347656 238.140625 52.339844 C 238.394531 52.335938 238.644531 52.304688 238.894531 52.25 C 239.140625 52.191406 239.378906 52.113281 239.609375 52.007812 C 239.84375 51.902344 240.0625 51.777344 240.265625 51.632812 C 240.472656 51.484375 240.660156 51.316406 240.835938 51.132812 L 240.851562 51.132812 C 241.199219 50.757812 241.464844 50.332031 241.640625 49.851562 C 241.820312 49.375 241.898438 48.882812 241.882812 48.371094 C 241.863281 47.863281 241.75 47.375 241.539062 46.910156 C 241.328125 46.445312 241.035156 46.039062 240.660156 45.691406 C 239.425781 44.523438 238.089844 43.480469 236.65625 42.566406 C 235.222656 41.648438 233.714844 40.878906 232.132812 40.25 C 230.550781 39.621094 228.921875 39.148438 227.25 38.828125 C 225.578125 38.507812 223.890625 38.351562 222.1875 38.351562 C 222.15625 38.351562 222.125 38.355469 222.089844 38.355469 L 222.089844 46.019531 C 222.125 46.019531 222.15625 46.015625 222.1875 46.015625 Z M 222.1875 46.015625 " fill-opacity="1" fill-rule="nonzero"/><path fill="#fbb03b" d="M 202.503906 48.507812 C 202.503906 49.515625 202.851562 50.390625 203.542969 51.132812 C 203.714844 51.316406 203.90625 51.484375 204.113281 51.632812 C 204.320312 51.777344 204.539062 51.90625 204.769531 52.007812 C 205 52.113281 205.242188 52.191406 205.488281 52.25 C 205.738281 52.304688 205.988281 52.335938 206.242188 52.34375 C 206.496094 52.347656 206.75 52.328125 207 52.285156 C 207.25 52.242188 207.492188 52.171875 207.730469 52.082031 C 207.96875 51.988281 208.191406 51.875 208.40625 51.738281 C 208.621094 51.601562 208.820312 51.441406 209 51.265625 C 210.765625 49.589844 212.78125 48.296875 215.042969 47.390625 C 217.304688 46.484375 219.652344 46.027344 222.089844 46.019531 L 222.089844 38.355469 C 220.398438 38.359375 218.71875 38.523438 217.054688 38.84375 C 215.390625 39.167969 213.773438 39.640625 212.199219 40.269531 C 210.625 40.898438 209.125 41.667969 207.699219 42.578125 C 206.273438 43.492188 204.945312 44.527344 203.714844 45.691406 C 202.902344 46.457031 202.5 47.394531 202.503906 48.507812 Z M 202.503906 48.507812 " fill-opacity="1" fill-rule="nonzero"/><g clip-path="url(#4acd33f470)"><path fill="#009245" d="M 270.246094 76.675781 C 268.269531 120.746094 222.191406 118.828125 222.191406 118.828125 C 222.191406 118.828125 235.570312 118.007812 238.78125 101.585938 L 238.796875 101.585938 C 252.253906 86.253906 270.246094 76.675781 270.246094 76.675781 Z M 270.246094 76.675781 " fill-opacity="1" fill-rule="nonzero"/></g><path fill="#009245" d="M 239.492188 93.921875 C 239.511719 96.5 239.277344 99.054688 238.78125 101.585938 C 235.570312 118.007812 222.191406 118.828125 222.191406 118.828125 L 222.191406 55.597656 C 222.191406 55.597656 234.011719 65.503906 238.105469 82.402344 C 239.03125 86.1875 239.492188 90.027344 239.492188 93.921875 Z M 239.492188 93.921875 " fill-opacity="1" fill-rule="nonzero"/><g clip-path="url(#97ca2fac72)"><path fill="#8cc63f" d="M 205.273438 82.175781 L 206.273438 82.402344 C 205.347656 86.1875 204.886719 90.027344 204.890625 93.921875 C 204.867188 96.5 205.105469 99.054688 205.601562 101.585938 C 192.144531 86.253906 174.132812 76.675781 174.132812 76.675781 C 174.132812 76.675781 191.433594 73.089844 205.273438 82.175781 Z M 205.273438 82.175781 " fill-opacity="1" fill-rule="nonzero"/></g><g clip-path="url(#0e71f0302e)"><path fill="#8cc63f" d="M 239.105469 82.175781 C 252.945312 73.089844 270.246094 76.675781 270.246094 76.675781 C 270.246094 76.675781 252.253906 86.253906 238.796875 101.585938 L 238.78125 101.585938 C 239.277344 99.054688 239.511719 96.5 239.492188 93.921875 C 239.492188 90.027344 239.03125 86.1875 238.105469 82.402344 Z M 239.105469 82.175781 " fill-opacity="1" fill-rule="nonzero"/></g><path fill="#8cc63f" d="M 222.191406 55.597656 L 222.191406 118.828125 C 222.191406 118.828125 208.8125 118.007812 205.601562 101.585938 C 205.105469 99.054688 204.867188 96.5 204.890625 93.921875 C 204.886719 90.027344 205.347656 86.1875 206.273438 82.402344 C 210.367188 65.503906 222.191406 55.597656 222.191406 55.597656 Z M 222.191406 55.597656 " fill-opacity="1" fill-rule="nonzero"/><g clip-path="url(#dea78d22ab)"><path fill="#009245" d="M 222.191406 118.828125 C 222.191406 118.828125 176.113281 120.746094 174.132812 76.675781 C 174.132812 76.675781 192.144531 86.253906 205.601562 101.585938 C 208.8125 118.007812 222.191406 118.828125 222.191406 118.828125 Z M 222.191406 118.828125 " fill-opacity="1" fill-rule="nonzero"/></g></svg>